<svg version="1.1" xmlns="http://www.w3.org/2000/svg" viewBox="0 0 872.5097885131836 418.5" width="872.5097885131836" height="418.5">
  <!-- svg-source:excalidraw -->
  
  <defs>
    <style class="style-fonts">
      @font-face {
        font-family: "Virgil";
        src: url("https://excalidraw.com/Virgil.woff2");
      }
      @font-face {
        font-family: "Cascadia";
        src: url("https://excalidraw.com/Cascadia.woff2");
      }
      @font-face {
        font-family: "Assistant";
        src: url("https://excalidraw.com/Assistant-Regular.woff2");
      }
    </style>
    
  </defs>
  <rect x="0" y="0" width="872.5097885131836" height="418.5" fill="#ffffff"></rect><g stroke-linecap="round" transform="translate(171.16992950439453 195) rotate(0 48 94)"><path d="M24 0 C41.72 -0.71, 60.53 0.83, 72 0 M24 0 C37.09 -1.11, 48.36 -1.19, 72 0 M72 0 C86.36 1.88, 94.37 6.14, 96 24 M72 0 C86.71 -1.82, 94.93 6.22, 96 24 M96 24 C97.96 55.79, 98.01 84.14, 96 164 M96 24 C95.89 73.1, 97.07 122.26, 96 164 M96 164 C97.12 178.73, 89.21 186.99, 72 188 M96 164 C95.1 181.67, 87.04 187.64, 72 188 M72 188 C61.88 188.51, 48.31 188.96, 24 188 M72 188 C55.75 188.4, 37.59 188.93, 24 188 M24 188 C8.79 186.16, -1.44 181.58, 0 164 M24 188 C8.22 186.94, 1.84 179.98, 0 164 M0 164 C2.12 127.24, -0.34 87.75, 0 24 M0 164 C0.06 129.98, 0.28 95.44, 0 24 M0 24 C1.28 7.49, 6.58 0.36, 24 0 M0 24 C2.17 8.23, 8.13 0.01, 24 0" stroke="#1e1e1e" stroke-width="2" fill="none"></path></g><g transform="translate(192.2899627685547 276.5) rotate(0 26.879966735839844 12.5)"><text x="26.879966735839844" y="0" font-family="Virgil, Segoe UI Emoji" font-size="20px" fill="#f08c00" text-anchor="middle" style="white-space: pre;" direction="ltr" dominant-baseline="text-before-edge">libp2p</text></g><g stroke-linecap="round" transform="translate(344.66992950439453 191) rotate(0 77 94)"><path d="M32 0 C49.53 -0.02, 72.11 -1.13, 122 0 M32 0 C65.02 0.54, 97.31 -0.92, 122 0 M122 0 C143.91 -0.45, 152.44 11.06, 154 32 M122 0 C141.17 -1.25, 152.63 12.82, 154 32 M154 32 C153.01 63.24, 155.97 95.69, 154 156 M154 32 C154.12 63.41, 154.22 93.58, 154 156 M154 156 C155.14 176.72, 142.85 188.8, 122 188 M154 156 C152.41 177.27, 143.52 189.07, 122 188 M122 188 C94.44 186.85, 70.26 187.6, 32 188 M122 188 C93.1 189.01, 63.7 188.41, 32 188 M32 188 C11.39 188.48, -1.34 178.97, 0 156 M32 188 C12.91 186.58, -1.77 175.95, 0 156 M0 156 C-0.71 127.69, 1.98 97.82, 0 32 M0 156 C-0.89 118.1, -1.42 79.06, 0 32 M0 32 C1.37 10.82, 9.87 1.54, 32 0 M0 32 C-2.29 12, 12.16 0.23, 32 0" stroke="#1e1e1e" stroke-width="2" fill="none"></path></g><g transform="translate(361.5599899291992 235) rotate(0 60.10993957519531 50)"><text x="60.10993957519531" y="0" font-family="Virgil, Segoe UI Emoji" font-size="20px" fill="#e03131" text-anchor="middle" style="white-space: pre;" direction="ltr" dominant-baseline="text-before-edge">Sandboxed </text><text x="60.10993957519531" y="25" font-family="Virgil, Segoe UI Emoji" font-size="20px" fill="#e03131" text-anchor="middle" style="white-space: pre;" direction="ltr" dominant-baseline="text-before-edge"></text><text x="60.10993957519531" y="50" font-family="Virgil, Segoe UI Emoji" font-size="20px" fill="#e03131" text-anchor="middle" style="white-space: pre;" direction="ltr" dominant-baseline="text-before-edge">core</text><text x="60.10993957519531" y="75" font-family="Virgil, Segoe UI Emoji" font-size="20px" fill="#e03131" text-anchor="middle" style="white-space: pre;" direction="ltr" dominant-baseline="text-before-edge">functionality</text></g><g stroke-linecap="round" transform="translate(575.6699295043945 181) rotate(0 65 94)"><path d="M32 0 C56.29 0.33, 84.6 -0.7, 98 0 M32 0 C55.07 -0.99, 76.38 -1.06, 98 0 M98 0 C118.26 1, 129.56 11.26, 130 32 M98 0 C120.59 -0.16, 132.1 8.55, 130 32 M130 32 C128.69 66.38, 129.73 100.82, 130 156 M130 32 C128.8 77.15, 128.95 122.36, 130 156 M130 156 C128.83 178.08, 119.18 186.38, 98 188 M130 156 C130.51 177.15, 119.51 185.9, 98 188 M98 188 C83.19 189.49, 65.67 188.45, 32 188 M98 188 C77.61 187.46, 55.95 188.2, 32 188 M32 188 C10.78 187.73, 0.05 176.35, 0 156 M32 188 C10.16 190.23, 1.14 175.78, 0 156 M0 156 C1.01 110.25, -0.25 63.44, 0 32 M0 156 C-0.03 125.71, 0 95.64, 0 32 M0 32 C1.39 12.01, 11.95 1.03, 32 0 M0 32 C1.48 10.24, 8.47 2.1, 32 0" stroke="#1e1e1e" stroke-width="2" fill="none"></path></g><g transform="translate(596.3699722290039 250) rotate(0 44.299957275390625 25)"><text x="44.299957275390625" y="0" font-family="Virgil, Segoe UI Emoji" font-size="20px" fill="#1971c2" text-anchor="middle" style="white-space: pre;" direction="ltr" dominant-baseline="text-before-edge">user </text><text x="44.299957275390625" y="25" font-family="Virgil, Segoe UI Emoji" font-size="20px" fill="#1971c2" text-anchor="middle" style="white-space: pre;" direction="ltr" dominant-baseline="text-before-edge">interface</text></g><g stroke-linecap="round"><g transform="translate(83.16992950439453 232) rotate(0 42.5 -1)"><path d="M-0.46 -0.57 C13.41 -0.85, 69.83 -1.98, 84 -2.18 M1.5 1.75 C15.66 1.7, 72.51 -0.39, 86.19 -0.74" stroke="#1e1e1e" stroke-width="2" fill="none"></path></g><g transform="translate(83.16992950439453 232) rotate(0 42.5 -1)"><path d="M58.34 10.41 C67.65 4.77, 78.5 1.62, 86.19 -0.74 M58.34 10.41 C66.89 6.54, 76.43 2.97, 86.19 -0.74" stroke="#1e1e1e" stroke-width="2" fill="none"></path></g><g transform="translate(83.16992950439453 232) rotate(0 42.5 -1)"><path d="M57.69 -10.11 C67.14 -8.23, 78.23 -3.86, 86.19 -0.74 M57.69 -10.11 C66.37 -7.47, 76.12 -4.55, 86.19 -0.74" stroke="#1e1e1e" stroke-width="2" fill="none"></path></g></g><mask></mask><g stroke-linecap="round"><g transform="translate(271.3042425738647 230.1470316971442) rotate(0 32.99999999999994 0.6702298112525114)"><path d="M-0.95 0.14 C10.12 0.4, 55.81 1.09, 66.97 1.34 M0.75 -0.83 C11.7 -0.36, 55.79 2.22, 66.54 2.88" stroke="#1e1e1e" stroke-width="2" fill="none"></path></g><g transform="translate(271.3042425738647 230.1470316971442) rotate(0 32.99999999999994 0.6702298112525114)"><path d="M37.79 11.45 C48 10.33, 57.74 5.77, 66.54 2.88 M37.79 11.45 C46.97 9, 57.2 6.93, 66.54 2.88" stroke="#1e1e1e" stroke-width="2" fill="none"></path></g><g transform="translate(271.3042425738647 230.1470316971442) rotate(0 32.99999999999994 0.6702298112525114)"><path d="M39.01 -9.04 C48.77 -3.06, 58.08 -0.52, 66.54 2.88 M39.01 -9.04 C47.93 -4.78, 57.76 -0.13, 66.54 2.88" stroke="#1e1e1e" stroke-width="2" fill="none"></path></g></g><mask></mask><g stroke-linecap="round"><g transform="translate(504.1584179829806 229.44269132855192) rotate(0 31.999999999999886 0.052011389965883836)"><path d="M-0.38 0.11 C10.24 0.17, 52.12 0.28, 62.84 0.22 M1.62 -0.88 C12.66 -0.58, 54.69 1.52, 64.94 1.82" stroke="#1e1e1e" stroke-width="2" fill="none"></path></g><g transform="translate(504.1584179829806 229.44269132855192) rotate(0 31.999999999999886 0.052011389965883836)"><path d="M36.35 10.92 C43.05 7.01, 49.55 6.73, 64.94 1.82 M36.35 10.92 C44.91 7.41, 52.27 6.42, 64.94 1.82" stroke="#1e1e1e" stroke-width="2" fill="none"></path></g><g transform="translate(504.1584179829806 229.44269132855192) rotate(0 31.999999999999886 0.052011389965883836)"><path d="M37.19 -9.58 C43.67 -8.84, 49.98 -4.46, 64.94 1.82 M37.19 -9.58 C45.53 -7.51, 52.67 -2.91, 64.94 1.82" stroke="#1e1e1e" stroke-width="2" fill="none"></path></g></g><mask></mask><g stroke-linecap="round"><g transform="translate(569.8911649585143 349.53633832443336) rotate(0 -30.999999999999886 -0.6837750644814946)"><path d="M0.5 0.24 C-9.94 -0.11, -52.22 -0.88, -62.63 -1.32 M-0.69 -0.68 C-10.74 -0.88, -49.92 0.4, -60.25 0.24" stroke="#1e1e1e" stroke-width="2" fill="none"></path></g><g transform="translate(569.8911649585143 349.53633832443336) rotate(0 -30.999999999999886 -0.6837750644814946)"><path d="M-32.17 -10.32 C-40.18 -8.06, -48.97 -3.72, -60.25 0.24 M-32.17 -10.32 C-38.53 -8.63, -44.93 -6.48, -60.25 0.24" stroke="#1e1e1e" stroke-width="2" fill="none"></path></g><g transform="translate(569.8911649585143 349.53633832443336) rotate(0 -30.999999999999886 -0.6837750644814946)"><path d="M-31.94 10.2 C-40.15 6.27, -49.01 4.41, -60.25 0.24 M-31.94 10.2 C-38.32 7.51, -44.76 5.26, -60.25 0.24" stroke="#1e1e1e" stroke-width="2" fill="none"></path></g></g><mask></mask><g stroke-linecap="round"><g transform="translate(338.23287114985294 355.65775696815797) rotate(0 -32 -0.13697394898767357)"><path d="M0.76 0.38 C-10.02 0.49, -53.16 0.95, -63.76 0.83 M-0.3 -0.46 C-11.3 -0.68, -54.14 -0.94, -64.58 -0.71" stroke="#1e1e1e" stroke-width="2" fill="none"></path></g><g transform="translate(338.23287114985294 355.65775696815797) rotate(0 -32 -0.13697394898767357)"><path d="M-36.45 -11.13 C-46.46 -6.59, -55.93 -1.06, -64.58 -0.71 M-36.45 -11.13 C-45.08 -8.47, -53.85 -4.23, -64.58 -0.71" stroke="#1e1e1e" stroke-width="2" fill="none"></path></g><g transform="translate(338.23287114985294 355.65775696815797) rotate(0 -32 -0.13697394898767357)"><path d="M-36.33 9.4 C-46.42 6.14, -55.94 3.9, -64.58 -0.71 M-36.33 9.4 C-44.83 6.02, -53.64 4.23, -64.58 -0.71" stroke="#1e1e1e" stroke-width="2" fill="none"></path></g></g><mask></mask><g stroke-linecap="round"><g transform="translate(163.07948505903607 360.64599184640514) rotate(0 -39.5 1.1900931245655784)"><path d="M0.48 0.23 C-12.96 0.3, -66.7 1.07, -79.77 1.62 M-0.73 -0.7 C-13.87 0.02, -64.56 2.35, -77.47 2.75" stroke="#1e1e1e" stroke-width="2" fill="none"></path></g><g transform="translate(163.07948505903607 360.64599184640514) rotate(0 -39.5 1.1900931245655784)"><path d="M-49.71 -8.62 C-59.61 -5.54, -71.66 1.78, -77.47 2.75 M-49.71 -8.62 C-60.96 -3.84, -71.14 0.23, -77.47 2.75" stroke="#1e1e1e" stroke-width="2" fill="none"></path></g><g transform="translate(163.07948505903607 360.64599184640514) rotate(0 -39.5 1.1900931245655784)"><path d="M-48.89 11.88 C-59.3 7.29, -71.65 6.93, -77.47 2.75 M-48.89 11.88 C-60.51 8.61, -71.02 4.63, -77.47 2.75" stroke="#1e1e1e" stroke-width="2" fill="none"></path></g></g><mask></mask><g stroke-linecap="round"><g transform="translate(744.9046225077077 161.20429656393827) rotate(0 -16.71949478362569 19.34820037135455)"><path d="M-1.05 -0.31 C-6.38 6.19, -26.85 32.92, -32.34 39.28 M0.59 -1.53 C-4.76 4.6, -26.76 30.75, -32.71 37.46" stroke="#1e1e1e" stroke-width="2" fill="none"></path></g><g transform="translate(744.9046225077077 161.20429656393827) rotate(0 -16.71949478362569 19.34820037135455)"><path d="M-23.66 13.55 C-26.56 21.71, -27.49 25.33, -32.71 37.46 M-23.66 13.55 C-26.48 18.56, -27.9 25.39, -32.71 37.46" stroke="#1e1e1e" stroke-width="2" fill="none"></path></g><g transform="translate(744.9046225077077 161.20429656393827) rotate(0 -16.71949478362569 19.34820037135455)"><path d="M-10.4 24.96 C-16.88 29.95, -21.37 30.5, -32.71 37.46 M-10.4 24.96 C-16.25 27.35, -20.73 31.54, -32.71 37.46" stroke="#1e1e1e" stroke-width="2" fill="none"></path></g></g><mask></mask><g transform="translate(666.1699295043945 123) rotate(0 98.16992950439453 12.5)"><text x="0" y="0" font-family="Virgil, Segoe UI Emoji" font-size="20px" fill="#1e1e1e" text-anchor="start" style="white-space: pre;" direction="ltr" dominant-baseline="text-before-edge">JS addEventHandler</text></g><g stroke-linecap="round"><g transform="translate(716.6630335569105 266.46849937543743) rotate(0 24.659038588474004 -0.5000000000000568)"><path d="M0.04 0.1 C8.23 -0.15, 40.57 -1.09, 48.77 -1.2 M-0.61 -0.32 C7.78 -0.53, 41.48 -0.43, 49.73 -0.6" stroke="#1e1e1e" stroke-width="2" fill="none"></path></g><g transform="translate(716.6630335569105 266.46849937543743) rotate(0 24.659038588474004 -0.5000000000000568)"><path d="M26.61 8.01 C32.08 5.03, 36.84 3.96, 49.73 -0.6 M26.61 8.01 C35.3 5.16, 44.76 1.11, 49.73 -0.6" stroke="#1e1e1e" stroke-width="2" fill="none"></path></g><g transform="translate(716.6630335569105 266.46849937543743) rotate(0 24.659038588474004 -0.5000000000000568)"><path d="M26.49 -8.86 C32.04 -7.97, 36.83 -5.17, 49.73 -0.6 M26.49 -8.86 C35.23 -5.15, 44.74 -2.64, 49.73 -0.6" stroke="#1e1e1e" stroke-width="2" fill="none"></path></g></g><mask></mask><g transform="translate(772 250.26420281149916) rotate(0 27.199981689453125 12.5)"><text x="0" y="0" font-family="Virgil, Segoe UI Emoji" font-size="20px" fill="#1e1e1e" text-anchor="start" style="white-space: pre;" direction="ltr" dominant-baseline="text-before-edge">HTML</text></g><g transform="translate(10 251.5) rotate(0 61.409942626953125 37.5)"><text x="61.409942626953125" y="0" font-family="Virgil, Segoe UI Emoji" font-size="20px" fill="#1e1e1e" text-anchor="middle" style="white-space: pre;" direction="ltr" dominant-baseline="text-before-edge">web-sys</text><text x="61.409942626953125" y="25" font-family="Virgil, Segoe UI Emoji" font-size="20px" fill="#1e1e1e" text-anchor="middle" style="white-space: pre;" direction="ltr" dominant-baseline="text-before-edge">via</text><text x="61.409942626953125" y="50" font-family="Virgil, Segoe UI Emoji" font-size="20px" fill="#1e1e1e" text-anchor="middle" style="white-space: pre;" direction="ltr" dominant-baseline="text-before-edge">wasm-bindgen</text></g><g transform="translate(246.58661651611328 10) rotate(0 164.0625 33.599999999999994)"><text x="164.0625" y="0" font-family="Cascadia, Segoe UI Emoji" font-size="28px" fill="#1e1e1e" text-anchor="middle" style="white-space: pre;" direction="ltr" dominant-baseline="text-before-edge">Libp2p Wasm Apps:</text><text x="164.0625" y="33.6" font-family="Cascadia, Segoe UI Emoji" font-size="28px" fill="#1e1e1e" text-anchor="middle" style="white-space: pre;" direction="ltr" dominant-baseline="text-before-edge">Modular &amp; Composable</text></g><g stroke-linecap="round"><g transform="translate(750.8164291627586 299.9559783540843) rotate(0 -17.917659214450055 0.37604555386360516)"><path d="M0.15 -0.38 C-5.86 -0.15, -30.14 0.85, -36.09 0.98 M-0.43 0.62 C-6.53 0.72, -30.77 0.1, -36.65 0.14" stroke="#1e1e1e" stroke-width="2" fill="none"></path></g><g transform="translate(750.8164291627586 299.9559783540843) rotate(0 -17.917659214450055 0.37604555386360516)"><path d="M-19.74 -5.8 C-25.32 -4.46, -29.26 -1.83, -36.65 0.14 M-19.74 -5.8 C-23.68 -4.64, -27.35 -2.78, -36.65 0.14" stroke="#1e1e1e" stroke-width="2" fill="none"></path></g><g transform="translate(750.8164291627586 299.9559783540843) rotate(0 -17.917659214450055 0.37604555386360516)"><path d="M-19.88 6.46 C-25.37 4.22, -29.27 3.27, -36.65 0.14 M-19.88 6.46 C-23.77 4.71, -27.4 3.67, -36.65 0.14" stroke="#1e1e1e" stroke-width="2" fill="none"></path></g></g><mask></mask><g transform="translate(758 282.26420281149916) rotate(0 49.33995819091797 12.5)"><text x="0" y="0" font-family="Virgil, Segoe UI Emoji" font-size="20px" fill="#1e1e1e" text-anchor="start" style="white-space: pre;" direction="ltr" dominant-baseline="text-before-edge">JS events</text></g><g transform="translate(265.70996856689453 384.5) rotate(0 41.015625 12)"><text x="41.015625" y="0" font-family="Cascadia, Segoe UI Emoji" font-size="20px" fill="#1e1e1e" text-anchor="middle" style="white-space: pre;" direction="ltr" dominant-baseline="text-before-edge">request</text></g><g transform="translate(266.29492950439453 167) rotate(0 46.875 12)"><text x="46.875" y="0" font-family="Cascadia, Segoe UI Emoji" font-size="20px" fill="#1e1e1e" text-anchor="middle" style="white-space: pre;" direction="ltr" dominant-baseline="text-before-edge">response</text></g><g transform="translate(503.00244903564453 381.75) rotate(0 41.015625 12)"><text x="41.015625" y="0" font-family="Cascadia, Segoe UI Emoji" font-size="20px" fill="#1e1e1e" text-anchor="middle" style="white-space: pre;" direction="ltr" dominant-baseline="text-before-edge">imports</text></g><g transform="translate(494.44678497314453 164.25) rotate(0 41.015625 12)"><text x="41.015625" y="0" font-family="Cascadia, Segoe UI Emoji" font-size="20px" fill="#1e1e1e" text-anchor="middle" style="white-space: pre;" direction="ltr" dominant-baseline="text-before-edge">exports</text></g></svg>